<?xml version="1.0" encoding="UTF-8" standalone="no"?>
<!-- Created with Inkscape (http://www.inkscape.org/) -->

<svg
   xmlns:dc="http://purl.org/dc/elements/1.1/"
   xmlns:cc="http://creativecommons.org/ns#"
   xmlns:rdf="http://www.w3.org/1999/02/22-rdf-syntax-ns#"
   xmlns:svg="http://www.w3.org/2000/svg"
   xmlns="http://www.w3.org/2000/svg"
   xmlns:xlink="http://www.w3.org/1999/xlink"
   xmlns:sodipodi="http://sodipodi.sourceforge.net/DTD/sodipodi-0.dtd"
   xmlns:inkscape="http://www.inkscape.org/namespaces/inkscape"
   height="798.09479"
   id="svg1"
   version="1.0"
   width="899.16357"
   x="0.0000000"
   y="0.0000000"
   inkscape:version="0.47 r22583"
   sodipodi:docname="19953.0.grave.svg">
  <sodipodi:namedview
     pagecolor="#ffffff"
     bordercolor="#666666"
     borderopacity="1"
     objecttolerance="10"
     gridtolerance="10"
     guidetolerance="10"
     inkscape:pageopacity="0"
     inkscape:pageshadow="2"
     inkscape:window-width="986"
     inkscape:window-height="621"
     id="namedview9"
     showgrid="false"
     inkscape:zoom="0.28693333"
     inkscape:cx="267.19331"
     inkscape:cy="353.7407"
     inkscape:window-x="510"
     inkscape:window-y="50"
     inkscape:window-maximized="0"
     inkscape:current-layer="svg1" />
  <metadata
     id="metadata3">
    <rdf:RDF>
      <cc:Work
         rdf:about="">
        <dc:title />
        <dc:description />
        <dc:subject>
          <rdf:Bag>
            <rdf:li />
            <rdf:li>christianity</rdf:li>
            <rdf:li>religion</rdf:li>
            <rdf:li>symbol</rdf:li>
            <rdf:li>signs_and_symbols</rdf:li>
          </rdf:Bag>
        </dc:subject>
        <dc:publisher>
          <cc:Agent
             rdf:about="http://www.openclipart.org">
            <dc:title>Aaron Johnson</dc:title>
          </cc:Agent>
        </dc:publisher>
        <dc:creator>
          <cc:Agent>
            <dc:title>Aaron Johnson</dc:title>
          </cc:Agent>
        </dc:creator>
        <dc:rights>
          <cc:Agent>
            <dc:title>Aaron Johnson</dc:title>
          </cc:Agent>
        </dc:rights>
        <dc:date />
        <dc:format>image/svg+xml</dc:format>
        <dc:type
           rdf:resource="http://purl.org/dc/dcmitype/StillImage" />
        <cc:license
           rdf:resource="http://web.resource.org/cc/PublicDomain" />
        <dc:language>en</dc:language>
      </cc:Work>
      <cc:License
         rdf:about="http://web.resource.org/cc/PublicDomain">
        <cc:permits
           rdf:resource="http://web.resource.org/cc/Reproduction" />
        <cc:permits
           rdf:resource="http://web.resource.org/cc/Distribution" />
        <cc:permits
           rdf:resource="http://web.resource.org/cc/DerivativeWorks" />
      </cc:License>
    </rdf:RDF>
  </metadata>
  <defs
     id="defs3">
    <inkscape:perspective
       sodipodi:type="inkscape:persp3d"
       inkscape:vp_x="0 : 468.75 : 1"
       inkscape:vp_y="0 : 1000 : 0"
       inkscape:vp_z="625 : 468.75 : 1"
       inkscape:persp3d-origin="312.5 : 312.5 : 1"
       id="perspective11" />
    <linearGradient
       id="linearGradient2186">
      <stop
         style="stop-color:#002f00;stop-opacity:1.0000000;"
         offset="0.00000000"
         id="stop2187" />
      <stop
         style="stop-color:#009300;stop-opacity:1.0000000;"
         offset="1.0000000"
         id="stop2188" />
    </linearGradient>
    <linearGradient
       id="linearGradient3433">
      <stop
         style="stop-color:#6c2f07;stop-opacity:1.0000000;"
         offset="0.00000000"
         id="stop3434" />
      <stop
         style="stop-color:#7e4932;stop-opacity:1.0000000;"
         offset="1.0000000"
         id="stop3435" />
    </linearGradient>
    <linearGradient
       id="linearGradient5302">
      <stop
         style="stop-color:#002f00;stop-opacity:0.70103091;"
         offset="0.00000000"
         id="stop5303" />
      <stop
         style="stop-color:#009300;stop-opacity:0.49019608;"
         offset="1.0000000"
         id="stop5304" />
    </linearGradient>
    <linearGradient
       id="linearGradient5927">
      <stop
         style="stop-color:#6c2f07;stop-opacity:1.0000000;"
         offset="0.00000000"
         id="stop5928" />
      <stop
         style="stop-color:#8e5941;stop-opacity:1.0000000;"
         offset="1.0000000"
         id="stop5929" />
    </linearGradient>
    <inkscape:perspective
       id="perspective2839"
       inkscape:persp3d-origin="218.75 : 350 : 1"
       inkscape:vp_z="437.5 : 525 : 1"
       inkscape:vp_y="0 : 1000 : 0"
       inkscape:vp_x="0 : 525 : 1"
       sodipodi:type="inkscape:persp3d" />
    <linearGradient
       y2="187.4728"
       y1="349.56566"
       xlink:href="#linearGradient5302-9"
       x2="494.23318"
       x1="743.20781"
       inkscape:collect="always"
       id="linearGradient5301-3"
       gradientTransform="matrix(0.74097775,0,0,1.9714083,-542.39416,73.846931)"
       gradientUnits="userSpaceOnUse" />
    <linearGradient
       y2="477.34329"
       y1="477.34329"
       xlink:href="#linearGradient3433-4"
       x2="373.19214"
       x1="340.14156"
       inkscape:collect="always"
       id="linearGradient3432-4"
       gradientTransform="matrix(0.74490816,0,0,1.9610063,-505.08294,75.41793)"
       gradientUnits="userSpaceOnUse" />
    <linearGradient
       y2="462.38378"
       y1="37.340302"
       xlink:href="#linearGradient2186-5"
       x2="669.43757"
       x1="669.43757"
       inkscape:collect="always"
       id="linearGradient2189-4"
       gradientTransform="matrix(0.74097771,0,0,1.9714084,-542.39416,73.846931)"
       gradientUnits="userSpaceOnUse" />
    <linearGradient
       id="linearGradient2186-5">
      <stop
         style="stop-color:#002f00;stop-opacity:1.0000000;"
         offset="0.00000000"
         id="stop2187-4" />
      <stop
         style="stop-color:#009300;stop-opacity:1.0000000;"
         offset="1.0000000"
         id="stop2188-7" />
    </linearGradient>
    <linearGradient
       id="linearGradient3433-4">
      <stop
         style="stop-color:#6c2f07;stop-opacity:1.0000000;"
         offset="0.00000000"
         id="stop3434-5" />
      <stop
         style="stop-color:#7e4932;stop-opacity:1.0000000;"
         offset="1.0000000"
         id="stop3435-2" />
    </linearGradient>
    <linearGradient
       id="linearGradient5302-9">
      <stop
         style="stop-color:#002f00;stop-opacity:0.70103091;"
         offset="0.00000000"
         id="stop5303-3" />
      <stop
         style="stop-color:#009300;stop-opacity:0.49019608;"
         offset="1.0000000"
         id="stop5304-7" />
    </linearGradient>
    <linearGradient
       id="linearGradient5927-6">
      <stop
         style="stop-color:#6c2f07;stop-opacity:1.0000000;"
         offset="0.00000000"
         id="stop5928-5" />
      <stop
         style="stop-color:#8e5941;stop-opacity:1.0000000;"
         offset="1.0000000"
         id="stop5929-6" />
    </linearGradient>
    <inkscape:perspective
       id="perspective2885"
       inkscape:persp3d-origin="218.75 : 350 : 1"
       inkscape:vp_z="437.5 : 525 : 1"
       inkscape:vp_y="0 : 1000 : 0"
       inkscape:vp_x="0 : 525 : 1"
       sodipodi:type="inkscape:persp3d" />
    <inkscape:perspective
       id="perspective2929"
       inkscape:persp3d-origin="112.5 : 104.16667 : 1"
       inkscape:vp_z="225 : 156.25 : 1"
       inkscape:vp_y="0 : 1000 : 0"
       inkscape:vp_x="0 : 156.25 : 1"
       sodipodi:type="inkscape:persp3d" />
    <inkscape:perspective
       id="perspective3793"
       inkscape:persp3d-origin="350 : 225 : 1"
       inkscape:vp_z="700 : 337.5 : 1"
       inkscape:vp_y="0 : 1000 : 0"
       inkscape:vp_x="0 : 337.5 : 1"
       sodipodi:type="inkscape:persp3d" />
  </defs>
  <g
     inkscape:label="Calque 1"
     id="layer1-6"
     transform="matrix(2.6029412,0,0,3.6173392,398.30917,-102.02828)">
    <path
       style="fill:#252525"
       id="path1368"
       d="" />
    <path
       style="fill:#000000"
       id="path1366"
       d="" />
    <g
       id="g2058">
      <g
         style="fill:#007b00;fill-opacity:1"
         id="g6534">
        <path
           style="fill:#007b00;fill-opacity:1;stroke:none"
           sodipodi:type="inkscape:offset"
           inkscape:radius="0.18463905"
           inkscape:original="M 154.00000 43.687500 C 152.91219 43.662910 146.66018 43.778435 144.25000 44.312500 C 141.24003 44.979476 141.07361 45.269405 141.81250 46.062500 C 142.23639 46.517500 143.62609 49.152443 144.09375 50.406250 C 145.02712 52.908439 145.41691 53.792809 145.93750 54.093750 C 145.95252 54.100424 145.98441 54.118694 146.00000 54.125000 C 146.17171 54.213693 166.42701 60.761422 170.12500 71.625000 C 173.59779 81.827021 167.42464 89.847205 166.93750 90.562500 C 166.39563 91.358156 166.18726 91.968751 166.46875 91.968750 C 166.53659 91.968747 167.18706 91.458976 167.90625 90.843750 C 168.62545 90.228526 171.92235 87.574217 172.31250 87.281250 C 172.70265 86.988286 175.54197 84.529458 175.68750 84.406250 C 178.74554 81.816925 182.51693 77.923504 184.15625 75.343750 C 185.53683 73.171179 187.66781 69.338555 186.46875 61.906250 C 185.58155 56.407002 181.07240 51.597102 179.50000 50.343750 C 179.26390 50.162074 175.22921 47.043035 170.09375 45.468750 C 166.82544 44.466844 161.23075 43.850967 154.00000 43.687500 z "
           id="path3608"
           d="m 154,43.5 c -1.11685,-0.02525 -7.31072,0.07756 -9.78125,0.625 -1.5098,0.334555 -2.32263,0.564675 -2.71875,0.875 -0.099,0.07758 -0.17678,0.174763 -0.21875,0.28125 -0.042,0.106487 -0.029,0.207651 0,0.3125 0.058,0.209698 0.21535,0.388842 0.40625,0.59375 0.0797,0.08553 0.24272,0.329709 0.4375,0.65625 0.19478,0.326541 0.42803,0.753633 0.65625,1.1875 0.45645,0.867734 0.8973,1.827025 1.125,2.4375 0.46714,1.252306 0.80824,2.103075 1.09375,2.6875 0.28551,0.584425 0.5329,0.914052 0.84375,1.09375 a 0.18465752,0.18465752 0 0 0 0.0312,0 c -0.006,-0.0028 0.0131,0.02208 0.0312,0.03125 0.0121,0.0061 0.0115,-0.008 0.0312,0 0.008,0.003 0.023,0.02821 0.0312,0.03125 0.0138,0.0051 0.009,-0.0078 0.0312,0 0.0441,0.01555 0.10829,0.06606 0.1875,0.09375 0.15842,0.05539 0.39956,0.114671 0.6875,0.21875 0.57588,0.208158 1.38695,0.509173 2.375,0.90625 1.9761,0.794154 4.64084,1.970294 7.40625,3.46875 5.53083,2.996912 11.46175,7.342351 13.28125,12.6875 1.72088,5.055444 1.06664,9.564463 -0.0937,12.90625 -0.58019,1.670893 -1.28682,3.058802 -1.875,4.0625 -0.58818,1.003698 -1.05395,1.616401 -1.1875,1.8125 -0.27711,0.406889 -0.46815,0.750222 -0.5625,1.03125 -0.0472,0.140514 -0.0835,0.279912 -0.0625,0.40625 0.0105,0.06317 0.0353,0.103447 0.0937,0.15625 0.0584,0.0528 0.15019,0.09375 0.21875,0.09375 0.062,-3e-6 0.0751,-0.02287 0.0937,-0.03125 0.0187,-0.0084 0.046,-0.02151 0.0625,-0.03125 0.033,-0.01948 0.0505,-0.03217 0.0937,-0.0625 0.0864,-0.06066 0.21174,-0.146641 0.34375,-0.25 0.26403,-0.206718 0.6074,-0.503388 0.96875,-0.8125 0.70674,-0.604562 4.04492,-3.259923 4.40625,-3.53125 0.22143,-0.166275 1.00411,-0.864223 1.78125,-1.53125 0.77714,-0.667027 1.53133,-1.290903 1.59375,-1.34375 3.07057,-2.599931 6.83703,-6.50803 8.5,-9.125 1.38717,-2.182943 3.54988,-6.086383 2.34375,-13.5625 -0.45009,-2.789825 -1.80467,-5.375836 -3.25,-7.4375 -1.44533,-2.061664 -2.9723,-3.605188 -3.78125,-4.25 -0.23236,-0.178801 -4.29386,-3.319878 -9.46875,-4.90625 C 166.85176,44.268253 161.23907,43.663655 154,43.5 z" />
        <path
           style="fill:#007b00;fill-opacity:1;stroke:none"
           sodipodi:type="inkscape:offset"
           inkscape:radius="0.37919405"
           inkscape:original="M 133.65625 49.750000 C 126.19121 49.835327 121.53859 50.101566 111.53125 52.343750 C 104.00081 54.030980 94.567940 57.776953 84.437500 62.812500 C 74.419397 67.792216 66.831800 72.711954 65.968750 73.406250 C 65.105687 74.100544 56.902230 79.932634 53.593750 84.812500 C 51.658891 87.666332 49.772040 92.523016 50.000000 95.281250 C 50.227171 98.029953 51.870480 100.46801 54.343750 103.03125 C 55.331201 104.05463 56.337310 104.82273 56.781250 105.06250 C 60.109181 106.85990 63.273450 107.50022 64.562500 107.59375 C 67.443067 107.80279 79.429610 107.47328 94.906250 101.65625 C 102.96821 98.626088 114.08318 93.125309 115.71875 92.187500 C 128.44810 84.888641 137.89802 74.074430 139.40625 71.781250 C 139.92237 70.996508 141.11672 69.365944 141.84375 67.906250 C 142.57076 66.446553 144.08542 62.827360 144.43750 60.531250 C 144.60667 59.427949 144.50851 57.900128 144.50000 57.562500 C 144.32014 55.699997 144.04562 53.928781 142.12500 52.562500 C 138.81589 50.208491 135.57256 49.889353 133.65625 49.750000 z "
           id="path3604"
           d="m 133.65625,49.375 c -7.47225,0.08541 -12.19319,0.347484 -22.21875,2.59375 -7.58136,1.698639 -17.008916,5.456055 -27.15625,10.5 -5.019453,2.495029 -9.454534,4.962794 -12.71875,6.90625 -1.632108,0.971728 -2.975212,1.829313 -3.96875,2.46875 -0.993538,0.639437 -1.618216,1.074676 -1.875,1.28125 -0.37838,0.304389 -2.665867,1.960301 -5.25,4.125 -2.584133,2.164699 -5.490945,4.841404 -7.1875,7.34375 -0.991369,1.462225 -1.960692,3.430008 -2.65625,5.375 -0.695558,1.944992 -1.122558,3.860838 -1,5.34375 0.238019,2.879958 1.93908,5.37945 4.4375,7.96875 1.010987,1.04777 2.000151,1.83816 2.53125,2.125 3.383228,1.82727 6.568534,2.46317 7.9375,2.5625 2.984996,0.21662 14.967417,-0.13069 30.5,-5.96875 4.047994,-1.52148 8.84741,-3.657522 12.84375,-5.53125 3.99634,-1.873728 7.16945,-3.443358 8.03125,-3.9375 6.39965,-3.669486 11.96645,-8.238266 16.125,-12.15625 4.15855,-3.917984 6.88397,-7.153272 7.6875,-8.375 0.50105,-0.761833 1.71807,-2.430332 2.46875,-3.9375 0.74482,-1.495457 2.25727,-5.070599 2.625,-7.46875 0.18045,-1.176859 0.0699,-2.738243 0.0625,-3.03125 a 0.37923197,0.37923197 0 0 0 0,-0.03125 c -0.1812,-1.876353 -0.4984,-3.835132 -2.53125,-5.28125 -3.39128,-2.412465 -6.72904,-2.734854 -8.65625,-2.875 a 0.37923197,0.37923197 0 0 0 -0.0312,0 z" />
        <path
           style="fill:#007b00;fill-opacity:1;stroke:none"
           sodipodi:type="inkscape:offset"
           inkscape:radius="0.69410473"
           inkscape:original="M 150.96875 68.312500 C 149.39822 68.285007 148.23443 68.359696 147.96875 68.375000 C 144.12296 68.924061 143.82237 68.992891 143.06250 69.781250 C 142.29575 70.576709 141.57459 71.868591 140.09375 74.125000 C 138.14536 77.093816 127.77741 87.625260 117.50000 93.125000 C 108.29608 98.050287 98.568940 102.13789 93.906250 103.65625 C 84.220280 106.81040 79.974220 108.38803 70.250000 109.12500 C 69.722460 109.16534 62.250010 109.21875 62.250000 109.21875 L 61.250000 110.50000 C 60.191030 111.86367 58.221720 115.28444 61.000000 120.46875 C 63.467940 125.07398 67.048380 128.87017 72.531250 130.46875 C 79.768760 132.57891 101.56908 128.51314 111.28125 125.00000 C 120.63232 121.61748 137.95029 113.65491 145.37500 109.18750 C 145.87411 108.88719 151.85609 104.55820 153.03125 103.40625 C 154.20641 102.25431 156.37893 100.14735 157.84375 98.718750 C 159.30856 97.290152 161.10376 95.376439 161.84375 94.500000 C 162.58373 93.623563 163.50171 92.585768 163.87500 92.156250 C 165.09506 90.752326 167.12535 86.909495 168.15625 85.156250 C 169.33723 83.147798 169.83316 79.879965 169.40625 76.968750 C 169.15449 75.252058 169.16788 72.876752 166.43750 71.312500 C 166.13854 71.141219 165.60538 70.577701 162.53125 69.781250 C 160.12504 69.157838 158.51679 69.018761 156.43750 68.718750 C 154.50935 68.440542 152.53928 68.339990 150.96875 68.312500 z "
           id="path3612"
           d="m 150.96875,67.625 c -1.59853,-0.02798 -2.77883,0.04796 -3.03125,0.0625 a 0.69417414,0.69417414 0 0 0 -0.0625,0 c -1.92441,0.274746 -2.97976,0.415645 -3.71875,0.625 -0.73899,0.209355 -1.18908,0.580161 -1.59375,1 -0.87643,0.909245 -1.59162,2.196272 -3.0625,4.4375 -0.8709,1.327007 -3.93964,4.740445 -8.03125,8.40625 -4.09161,3.665805 -9.21944,7.635028 -14.28125,10.34375 -9.1654,4.904676 -18.915807,9.0072 -23.5,10.5 -9.693976,3.15676 -13.835029,4.70502 -23.5,5.4375 -0.01928,0.001 -0.633373,0.0206 -1.40625,0.0312 -0.772877,0.0106 -1.7835,0.0221 -2.75,0.0312 -1.933,0.0184 -3.78125,0.0312 -3.78125,0.0312 a 0.69417414,0.69417414 0 0 0 -0.5625,0.25 l -1,1.28125 c -1.14818,1.47855 -3.215327,5.30203 -0.3125,10.71875 2.524947,4.71161 6.280353,8.68525 11.96875,10.34375 3.913544,1.14103 11.142656,0.60414 18.75,-0.59375 7.607344,-1.19789 15.50574,-3.09106 20.4375,-4.875 9.42095,-3.4078 26.66643,-11.34961 34.1875,-15.875 0.23118,-0.1391 0.65984,-0.43781 1.3125,-0.90625 0.65266,-0.46844 1.48828,-1.05332 2.34375,-1.6875 1.71094,-1.26835 3.45862,-2.5974 4.15625,-3.28125 1.17191,-1.14876 3.34631,-3.25756 4.8125,-4.6875 1.48369,-1.447012 3.25558,-3.362553 4.03125,-4.28125 0.73167,-0.8666 1.6515,-1.87555 2.03125,-2.3125 0.69067,-0.79475 1.48601,-2.133833 2.28125,-3.5 0.79524,-1.366167 1.55845,-2.767759 2.0625,-3.625 1.30469,-2.218837 1.79268,-5.563656 1.34375,-8.625 -0.11895,-0.811124 -0.17991,-1.906597 -0.59375,-3.03125 -0.41384,-1.124653 -1.22164,-2.267299 -2.71875,-3.125 -0.019,-0.01089 -0.36106,-0.275758 -0.96875,-0.5625 -0.60769,-0.286742 -1.52764,-0.65675 -3.09375,-1.0625 -2.45464,-0.635959 -4.12827,-0.765383 -6.1875,-1.0625 -1.9709,-0.284376 -3.97251,-0.378419 -5.5625,-0.40625 z" />
      </g>
      <g
         style="fill:#64a74f;fill-opacity:1"
         id="g6528">
        <path
           style="fill:#64a74f;fill-opacity:1;stroke:none"
           sodipodi:type="inkscape:offset"
           inkscape:radius="0.35958999"
           inkscape:original="M 153.25000 29.343750 C 150.51115 29.288157 147.43251 29.452293 144.00000 29.968750 C 132.64002 31.677982 128.04058 33.354031 126.68750 33.781250 C 125.09480 34.284126 123.88963 34.944511 123.81250 35.000000 C 123.61096 35.188535 123.61247 35.375000 124.00000 35.375000 C 124.22981 35.375001 127.83124 36.194558 129.06250 36.468750 C 133.72530 37.507114 137.32808 40.687504 137.84375 41.156250 C 138.35943 41.624991 139.08912 42.364420 139.46875 42.812500 C 140.25683 43.742628 139.83022 43.254771 144.09375 42.625000 C 145.43848 42.426370 153.80544 41.005739 165.71875 42.750000 C 168.84462 43.207669 172.67079 43.914770 177.84375 47.093750 C 179.00810 47.809291 182.23802 49.806533 184.53125 53.468750 C 189.83094 61.932241 188.05192 67.750008 187.96875 68.218750 L 187.81250 69.062500 C 187.81250 69.062497 190.11567 67.836012 191.21875 62.312500 C 192.68038 54.993552 188.53219 48.579094 186.03125 44.875000 C 182.81993 40.118775 178.02426 35.604653 168.21875 32.250000 C 166.52820 31.671633 161.46656 29.510535 153.25000 29.343750 z "
           id="path3606"
           d="m 153.25,28.96875 c -2.75867,-0.05599 -5.85979,0.136754 -9.3125,0.65625 -11.38006,1.712253 -16.02506,3.396139 -17.34375,3.8125 -0.81461,0.257205 -1.54144,0.541276 -2.0625,0.78125 -0.26053,0.119987 -0.47084,0.232088 -0.625,0.3125 -0.0771,0.04021 -0.14,0.06713 -0.1875,0.09375 -0.0475,0.02662 -0.0724,0.05592 -0.125,0.09375 A 0.35962595,0.35962595 0 0 0 123.5625,34.75 c -0.0721,0.06749 -0.13792,0.120257 -0.1875,0.21875 -0.0496,0.09849 -0.083,0.252572 -0.0312,0.40625 0.0517,0.153678 0.19666,0.266543 0.3125,0.3125 0.11584,0.04596 0.21803,0.0625 0.34375,0.0625 -0.0781,0 0.0378,-0.02212 0.15625,0 0.11843,0.02212 0.30676,0.05347 0.5,0.09375 0.38649,0.08055 0.89669,0.193069 1.4375,0.3125 1.08162,0.238862 2.25778,0.5188 2.875,0.65625 4.5491,1.013044 8.12714,4.172443 8.625,4.625 0.50133,0.455701 1.2349,1.170198 1.59375,1.59375 0.1967,0.232153 0.33365,0.437256 0.5625,0.5625 0.22885,0.125244 0.49135,0.109133 0.78125,0.0625 0.5798,-0.09327 1.50823,-0.374829 3.625,-0.6875 1.37662,-0.20334 9.63826,-1.61171 21.5,0.125 3.11496,0.456071 6.87416,1.162478 12,4.3125 1.16278,0.714577 4.31866,2.666663 6.5625,6.25 2.62057,4.184995 3.4846,7.702471 3.6875,10.21875 0.10145,1.25814 0.0304,2.278033 -0.0625,3 -0.0464,0.360984 -0.0803,0.630483 -0.125,0.84375 -0.0447,0.213267 -0.0753,0.333337 -0.0937,0.4375 L 187.46875,69 a 0.35962595,0.35962595 0 0 0 0.5,0.375 c 0,0 0.21436,-0.09288 0.46875,-0.3125 0.25439,-0.219619 0.59543,-0.572188 0.96875,-1.09375 0.74665,-1.043124 1.5963,-2.789874 2.15625,-5.59375 1.49512,-7.486645 -2.71326,-13.976673 -5.21875,-17.6875 -3.24518,-4.806374 -8.13499,-9.40624 -18,-12.78125 -1.63897,-0.560721 -6.81717,-2.769497 -15.09375,-2.9375 z" />
        <path
           style="fill:#64a74f;fill-opacity:1;stroke:none"
           sodipodi:type="inkscape:offset"
           inkscape:radius="0.69410473"
           inkscape:original="M 118.21875 36.406250 C 113.64245 36.420121 101.09620 37.464173 93.687500 40.031250 C 82.604747 43.871373 67.139830 50.673828 57.968750 58.062500 C 50.639081 63.967638 44.146360 72.305794 41.718750 78.093750 C 39.318741 83.815950 38.027540 91.271410 40.937500 96.375000 C 44.397471 102.44324 49.684120 103.98859 52.187500 105.00000 C 53.165371 105.39507 56.312500 106.28125 56.312500 106.28125 C 56.312501 106.28125 52.722940 103.53418 51.468750 101.68750 C 50.228071 99.860757 47.758370 96.930009 48.843750 92.125000 C 49.787791 87.945762 50.793720 86.466004 53.218750 82.843750 C 57.610021 76.284531 75.492620 63.338397 94.031250 56.343750 C 102.26601 53.236759 104.31334 51.481567 119.84375 48.937500 C 130.55390 47.183051 138.21418 48.420622 140.87500 49.750000 L 141.90625 50.250000 L 141.75000 49.781250 C 141.27796 48.209149 138.39176 44.045507 136.62500 42.406250 C 135.82472 41.663747 133.80426 39.749876 129.59375 38.218750 C 126.12360 36.956859 122.00652 36.394775 118.21875 36.406250 z "
           id="path3602"
           d="m 118.21875,35.71875 c -4.67802,0.01418 -17.16726,1.028867 -24.75,3.65625 -11.133612,3.857746 -26.631639,10.658992 -35.9375,18.15625 -7.422304,5.979769 -13.931119,14.305487 -16.4375,20.28125 -2.448838,5.83862 -3.847793,13.473232 -0.75,18.90625 3.585546,6.28848 9.177379,7.96124 11.59375,8.9375 1.123198,0.45378 4.1875,1.28125 4.1875,1.28125 a 0.69417414,0.69417414 0 0 0 0.59375,-1.21875 c 0,0 -0.869863,-0.66037 -1.90625,-1.5625 -1.036387,-0.90213 -2.237197,-2.04268 -2.78125,-2.84375 -1.287352,-1.895463 -3.522155,-4.506141 -2.5,-9.03125 0.92845,-4.110218 1.824221,-5.439127 4.25,-9.0625 2.070765,-3.093091 7.641506,-7.971716 14.9375,-12.875 C 76.014744,65.440466 85.0753,60.473416 94.28125,57 c 8.27999,-3.124056 10.19775,-4.837593 25.6875,-7.375 5.30333,-0.868748 9.84712,-1.002074 13.375,-0.75 3.52788,0.252074 6.04954,0.915847 7.21875,1.5 l 1.03125,0.5 a 0.69417414,0.69417414 0 0 0 0.96875,-0.84375 l -0.15625,-0.4375 c -0.002,-0.0061 0.002,-0.02508 0,-0.03125 -0.30443,-0.996243 -1.14187,-2.38273 -2.15625,-3.84375 -1.02066,-1.470072 -2.19622,-2.921756 -3.15625,-3.8125 -0.79133,-0.734201 -2.93193,-2.77351 -7.25,-4.34375 -3.57364,-1.299526 -7.76704,-1.855438 -11.625,-1.84375 z" />
        <path
           style="fill:#64a74f;fill-opacity:1;stroke:none"
           sodipodi:type="inkscape:offset"
           inkscape:radius="0.52057856"
           inkscape:original="M 146.65625 56.250000 C 146.28999 56.293326 146.28539 56.800591 146.40625 58.093750 C 146.75660 61.842349 144.40625 66.285311 144.40625 66.562500 C 144.40625 66.722856 144.42779 66.806389 144.46875 66.875000 C 144.58267 66.910291 144.71239 66.969997 144.93750 66.968750 C 144.98627 66.964302 145.00239 66.976874 145.06250 66.968750 C 145.09677 66.967878 145.18207 66.938909 145.21875 66.937500 C 145.23539 66.934919 145.23339 66.940056 145.25000 66.937500 C 147.76606 66.550217 149.96197 66.394018 151.90625 66.468750 C 154.96033 66.586134 160.63317 67.589080 162.93750 68.187500 C 163.36049 68.297345 167.21876 69.691653 167.21875 69.375000 C 167.21875 68.858558 163.58554 65.365001 161.93750 64.031250 C 160.45564 62.831982 156.62306 60.388293 154.75000 59.437500 C 152.12504 58.105014 147.42883 56.114546 146.65625 56.250000 z "
           id="path3610"
           d="m 146.5625,55.75 c -0.19991,0.03614 -0.44436,0.169407 -0.5625,0.34375 -0.12587,0.185745 -0.13545,0.370414 -0.15625,0.5625 -0.0416,0.384172 -0.0298,0.846532 0.0312,1.5 0.16336,1.747937 -0.31167,3.733306 -0.84375,5.3125 -0.26604,0.789597 -0.53715,1.459501 -0.75,1.96875 -0.10643,0.254625 -0.18344,0.4624 -0.25,0.625 -0.0333,0.0813 -0.0711,0.15427 -0.0937,0.21875 -0.0227,0.06448 -0.0625,0.08 -0.0625,0.28125 0,0.206974 0.0611,0.434432 0.15625,0.59375 a 0.52063062,0.52063062 0 0 0 0.28125,0.21875 c 0.0621,0.01923 0.30674,0.126763 0.625,0.125 a 0.52063062,0.52063062 0 0 0 0.0625,0 c 0.0191,4.79e-4 0.0387,8.82e-4 0.0625,0 0.0428,-0.0011 0.0389,0.0029 0.0625,0 0.0489,-0.006 0.10936,-0.02529 0.125,-0.03125 a 0.52063062,0.52063062 0 0 0 0.0312,-0.03125 c 0.027,2.02e-4 0.0435,0.0029 0.0625,0 2.49185,-0.383556 4.62982,-0.510585 6.53125,-0.4375 2.96508,0.113963 8.69739,1.105757 10.9375,1.6875 0.0328,0.0085 0.39109,0.139963 0.8125,0.28125 0.42141,0.141287 0.95463,0.305675 1.46875,0.46875 0.51412,0.163075 1.01211,0.312184 1.40625,0.40625 0.19707,0.04703 0.33735,0.08146 0.5,0.09375 0.0813,0.0061 0.18034,0.0021 0.3125,-0.03125 0.0661,-0.01667 0.15033,-0.03443 0.25,-0.125 0.0997,-0.09057 0.1875,-0.26421 0.1875,-0.40625 0,-0.369748 -0.12894,-0.450832 -0.25,-0.625 -0.12106,-0.174168 -0.2783,-0.374904 -0.46875,-0.59375 -0.3809,-0.437692 -0.9059,-0.973275 -1.46875,-1.53125 -1.12569,-1.11595 -2.46112,-2.310982 -3.3125,-3 -1.55424,-1.257848 -5.31149,-3.672234 -7.25,-4.65625 -1.33092,-0.675603 -3.16699,-1.502722 -4.78125,-2.15625 -0.80713,-0.326764 -1.57673,-0.617467 -2.1875,-0.8125 -0.30538,-0.09752 -0.57802,-0.168949 -0.8125,-0.21875 -0.22334,-0.04744 -0.39523,-0.06515 -0.625,-0.03125 -0.008,0.0011 -0.0232,-0.0014 -0.0312,0 z" />
        <path
           style="fill:#64a74f;fill-opacity:1;stroke:none"
           sodipodi:type="inkscape:offset"
           inkscape:radius="0.41731536"
           inkscape:original="M 55.750000 107.96875 C 54.661690 113.47364 55.088220 117.08946 56.531250 120.09375 C 57.238750 121.56681 58.650150 124.14678 60.750000 125.68750 C 61.279950 126.07634 63.929460 127.73437 63.375000 126.84375 C 63.056260 126.33177 62.603260 125.66103 62.000000 125.00000 C 60.713530 123.59033 58.942580 120.21168 58.312500 118.18750 C 57.615780 115.94922 57.930930 112.28967 59.312500 110.28125 C 59.722070 109.68583 60.041330 109.09283 60.000000 108.96875 C 59.907000 108.68973 56.621400 107.97332 55.750000 107.96875 z "
           id="path3614"
           d="m 55.625,107.5625 a 0.4173571,0.4173571 0 0 0 -0.28125,0.3125 c -1.099077,5.55935 -0.673215,9.31309 0.8125,12.40625 0.718945,1.49689 2.136661,4.1306 4.34375,5.75 0.304319,0.22329 1.096548,0.72842 1.78125,1.09375 0.342351,0.18267 0.616365,0.31616 0.90625,0.375 0.07247,0.0147 0.142122,0.0162 0.25,0 0.107878,-0.0162 0.291715,-0.0904 0.375,-0.25 0.08328,-0.15964 0.05913,-0.28137 0.03125,-0.375 -0.02788,-0.0936 -0.07832,-0.17502 -0.125,-0.25 -0.326071,-0.52376 -0.778359,-1.21823 -1.40625,-1.90625 -1.191208,-1.30528 -2.990456,-4.71812 -3.59375,-6.65625 -0.647742,-2.08093 -0.326713,-5.69343 0.9375,-7.53125 0.212752,-0.30929 0.394641,-0.61644 0.53125,-0.875 0.0683,-0.12928 0.11525,-0.26437 0.15625,-0.375 0.0205,-0.0553 0.05025,-0.092 0.0625,-0.15625 0.01225,-0.0643 0.04637,-0.14205 0,-0.28125 -0.05985,-0.17956 -0.156341,-0.23755 -0.21875,-0.28125 -0.06241,-0.0437 -0.123423,-0.0642 -0.1875,-0.0937 -0.128155,-0.0591 -0.291959,-0.10001 -0.46875,-0.15625 -0.353582,-0.11247 -0.802545,-0.23471 -1.28125,-0.34375 -0.95741,-0.21807 -1.952692,-0.40338 -2.5,-0.40625 a 0.4173571,0.4173571 0 0 0 -0.125,0 z" />
      </g>
      <path
         style="fill:#815533;fill-opacity:1;stroke:none"
         sodipodi:type="inkscape:offset"
         inkscape:radius="0.54873794"
         inkscape:original="M 147.71875 109.84375 C 147.57958 109.78175 147.04161 110.09494 146.06250 110.81250 C 144.59223 111.89000 139.21582 114.85939 136.81250 116.03125 C 134.70320 117.05973 133.30438 117.71014 132.81250 117.90625 C 132.39370 118.13135 131.98614 118.34876 131.81250 118.46875 C 131.74324 118.52523 131.69189 118.52688 131.62500 118.59375 C 131.30975 118.90902 131.18749 119.31715 131.18750 120.12500 C 131.18750 120.82863 130.98452 121.65906 130.62500 122.50000 C 129.39592 125.37493 128.17429 127.88644 127.50000 128.81250 C 127.10903 129.34945 124.29688 133.94860 124.06250 134.37500 C 123.07141 136.17816 119.62305 141.88056 119.03125 142.68750 C 118.81639 142.98046 116.49300 146.53601 115.81250 147.46875 C 115.13201 148.40147 113.24289 150.99610 112.96875 151.40625 C 112.69457 151.81640 109.24671 156.66986 108.75000 157.81250 C 108.54902 158.27483 108.34595 158.24291 108.65625 161.00000 C 108.99097 163.97398 108.92472 164.40624 108.15625 164.40625 C 107.57829 164.40624 107.38339 163.85523 107.00000 161.28125 C 106.50300 157.94435 106.56371 154.17762 107.15625 150.56250 C 107.48186 148.57608 108.86489 144.55545 109.59375 142.81250 C 111.70172 137.77169 114.01830 134.37071 115.21875 132.43750 C 116.36109 130.59785 120.01960 125.51712 120.65625 124.65625 C 121.84368 123.05058 122.13706 122.24326 121.43750 122.53125 C 121.23243 122.61568 113.40696 126.18049 111.62500 126.59375 C 110.85898 126.77140 110.05492 126.95282 110.00000 127.12500 C 109.71679 128.01270 110.64404 130.59915 109.56250 133.31250 C 109.02457 134.66205 107.17924 138.77295 105.96875 141.18750 C 103.93558 145.24302 101.72543 148.33657 100.31250 150.18750 C 99.154312 151.70475 96.815940 149.51102 95.468750 145.96875 C 95.290480 145.50001 94.425710 142.49655 94.375000 142.34375 C 93.588460 139.97390 93.227650 138.11719 93.000000 134.90625 C 92.804550 132.15007 92.676400 131.29019 92.312500 131.25000 C 92.260510 131.24426 91.261710 131.48265 90.500000 131.59375 C 89.738290 131.70483 88.242170 131.94681 87.187500 132.12500 C 86.132830 132.30320 84.703100 132.43318 84.000000 132.43750 C 83.296880 132.44183 82.594790 132.52532 82.437500 132.62500 C 82.344600 132.68387 82.275510 132.72667 82.281250 132.84375 C 82.298420 133.19503 84.321190 136.11767 86.187500 138.93750 C 88.057790 141.76336 89.170890 144.32121 90.156250 146.21875 C 91.141610 148.11629 91.711810 149.18516 92.406250 151.03125 C 94.333650 156.15515 94.959520 159.87376 95.625000 165.25000 C 95.748300 166.24607 95.989490 167.84376 96.156250 168.78125 C 96.984410 173.43622 97.157050 175.39923 97.218750 181.40625 C 97.253350 184.77278 97.197860 189.16410 97.093750 191.15625 C 96.989650 193.14840 96.833040 197.11017 96.781250 199.96875 C 96.658780 206.72437 96.527610 208.48763 95.343750 215.87500 C 95.174730 216.92967 94.612880 221.17579 94.437500 221.93750 C 93.946850 224.06851 93.531810 225.90931 93.062500 228.12500 C 92.577610 230.41442 92.105740 232.25052 91.656250 233.65625 C 91.487630 234.18359 89.879350 239.87747 89.812500 240.31250 C 89.730790 240.84420 90.872150 241.44237 92.031250 241.40625 C 93.357840 241.36493 103.10820 240.61578 107.06250 240.59375 C 109.05212 240.58264 110.67820 240.53977 110.71875 240.37500 C 110.82378 239.94810 108.55009 235.51365 107.21875 230.56250 C 106.96975 229.63650 106.00540 225.16174 105.96875 224.65625 C 105.88237 223.46415 104.41474 215.06615 104.25000 213.40625 C 104.13132 212.21047 103.91268 210.98451 104.00000 203.84375 C 104.09317 196.22459 104.27656 192.89105 104.78125 189.34375 C 104.88962 188.58204 106.08933 180.90234 106.12500 180.37500 C 106.21996 178.97099 108.05046 173.25780 108.46875 171.96875 C 109.99246 167.27338 114.37499 158.64866 114.37500 158.56250 C 114.37500 158.15858 119.50017 149.01700 121.43750 145.96875 C 121.88436 145.26564 122.47985 144.22377 122.78125 143.65625 C 123.38521 142.51903 129.10183 134.14452 129.50000 133.50000 C 130.18517 132.39086 132.92933 128.60377 134.06250 127.21875 C 135.67965 125.24218 139.43360 120.15235 139.50000 120.09375 C 139.69710 119.91984 141.64544 117.47127 143.00000 115.71875 C 143.69336 114.82170 144.57620 113.79596 144.93750 113.40625 C 147.03677 111.14193 147.95070 109.94710 147.71875 109.84375 z "
         id="path3618"
         d="m 147.34375,109.34375 c -0.1359,0.0507 -0.25361,0.12957 -0.40625,0.21875 -0.30528,0.17835 -0.69,0.4479 -1.1875,0.8125 -1.34352,0.98461 -6.82263,4.00314 -9.1875,5.15625 -2.10531,1.02654 -3.53213,1.70092 -3.96875,1.875 a 0.54879282,0.54879282 0 0 0 -0.0312,0.0312 c -0.41782,0.22457 -0.81352,0.4217 -1.0625,0.59375 a 0.54879282,0.54879282 0 0 0 -0.0312,0 c -0.0422,0.0224 -0.13725,0.10602 -0.21875,0.1875 -0.43252,0.43255 -0.62501,1.04303 -0.625,1.90625 0,0.5981 -0.16246,1.36673 -0.5,2.15625 -1.22282,2.8603 -2.48046,5.41939 -3.0625,6.21875 -0.53161,0.73011 -3.14419,5.03455 -3.46875,5.625 -0.48376,0.88014 -1.59831,2.75146 -2.65625,4.5 -1.05794,1.74854 -2.11181,3.43374 -2.34375,3.75 -0.0878,0.11977 -0.27213,0.36021 -0.53125,0.75 -0.25912,0.38979 -0.59146,0.88571 -0.9375,1.40625 -0.69209,1.04108 -1.43016,2.18661 -1.75,2.625 -0.68107,0.93352 -2.54779,3.44796 -2.875,3.9375 -0.10225,0.15296 -1.03822,1.52497 -2,2.9375 -0.48089,0.70627 -0.97269,1.43266 -1.375,2.0625 -0.40231,0.62984 -0.71491,1.13173 -0.875,1.5 -0.0717,0.16496 -0.23632,0.42861 -0.28125,0.90625 -0.0449,0.47764 -3.6e-4,1.17097 0.15625,2.5625 0.16658,1.48006 0.20604,2.34997 0.15625,2.6875 -0.0249,0.16877 -0.0684,0.15465 -0.0312,0.125 0.0372,-0.0297 0.0469,-0.0312 -0.0937,-0.0312 -0.0105,-0.0123 -0.0645,-0.0542 -0.125,-0.21875 -0.13439,-0.36564 -0.30946,-1.15827 -0.5,-2.4375 -0.48718,-3.27095 -0.42742,-6.97027 0.15625,-10.53125 0.30461,-1.85829 1.69795,-5.93122 2.40625,-7.625 2.08666,-4.98984 4.37855,-8.35554 5.59375,-10.3125 1.10421,-1.77825 4.78576,-6.91098 5.40625,-7.75 0.60701,-0.82081 1.00802,-1.41651 1.1875,-1.90625 0.0449,-0.12243 0.0533,-0.23096 0.0625,-0.375 0.009,-0.14404 0.001,-0.34962 -0.15625,-0.53125 -0.15765,-0.18163 -0.40342,-0.22535 -0.5625,-0.21875 -0.15908,0.007 -0.28332,0.0431 -0.40625,0.0937 -0.0861,0.0354 -0.16919,0.0811 -0.40625,0.1875 -0.23706,0.10635 -0.57417,0.2615 -0.96875,0.4375 -0.78915,0.35201 -1.83796,0.80577 -2.9375,1.28125 -1.09954,0.47548 -2.2396,0.95342 -3.21875,1.34375 -0.97915,0.39033 -1.82504,0.69719 -2.1875,0.78125 -0.38189,0.0886 -0.76309,0.18424 -1.09375,0.28125 -0.16533,0.0485 -0.32881,0.0915 -0.46875,0.15625 -0.13994,0.0648 -0.3457,0.083 -0.46875,0.46875 -0.12061,0.37804 -0.094,0.72942 -0.0625,1.15625 0.0315,0.42683 0.0954,0.90781 0.125,1.4375 0.0591,1.05938 0.0298,2.28039 -0.46875,3.53125 -0.52003,1.30463 -2.39496,5.45254 -3.59375,7.84375 -2.01187,4.01304 -4.19229,7.07034 -5.59375,8.90625 -0.196812,0.25783 -0.3285,0.30891 -0.5625,0.28125 -0.234,-0.0277 -0.602817,-0.20788 -1,-0.5625 -0.794366,-0.70924 -1.694275,-2.07353 -2.34375,-3.78125 -0.05551,-0.14595 -0.318177,-1.07936 -0.5625,-1.90625 -0.122161,-0.41345 -0.252722,-0.81448 -0.34375,-1.125 -0.09103,-0.31052 -0.121157,-0.48801 -0.15625,-0.59375 -0.775352,-2.33614 -1.117937,-4.09622 -1.34375,-7.28125 -0.09804,-1.38251 -0.201356,-2.29086 -0.3125,-2.90625 -0.05557,-0.30769 -0.106689,-0.56246 -0.21875,-0.78125 -0.112061,-0.21879 -0.356555,-0.43565 -0.65625,-0.46875 -0.153823,-0.017 -0.132755,-0.003 -0.15625,0 -0.02349,0.003 -0.04147,-0.004 -0.0625,0 -0.04205,0.008 -0.0982,0.0193 -0.15625,0.0312 -0.116091,0.024 -0.263634,0.0577 -0.4375,0.0937 -0.347732,0.072 -0.796966,0.16635 -1.15625,0.21875 -0.772786,0.1127 -2.254241,0.35245 -3.3125,0.53125 -1.017564,0.17193 -2.453705,0.27732 -3.09375,0.28125 -0.372153,0.002 -0.75402,0.0256 -1.0625,0.0625 -0.15424,0.0185 -0.280975,0.066 -0.40625,0.0937 -0.125275,0.0277 -0.209025,0.0198 -0.375,0.125 -0.04529,0.0287 -0.143867,0.0643 -0.25,0.1875 -0.106133,0.12319 -0.195803,0.36189 -0.1875,0.53125 0.01407,0.28776 0.08533,0.32943 0.15625,0.46875 0.07092,0.13932 0.166881,0.31002 0.28125,0.5 0.228738,0.37996 0.565179,0.8713 0.9375,1.4375 0.744643,1.13239 1.694046,2.56216 2.625,3.96875 1.841482,2.78233 2.937085,5.29222 3.9375,7.21875 0.98642,1.89958 1.565836,2.93123 2.25,4.75 1.91038,5.07865 2.523383,8.72852 3.1875,14.09375 0.125229,1.01166 0.361641,2.60899 0.53125,3.5625 0.825804,4.64173 0.969645,6.53351 1.03125,12.53125 0.03449,3.3556 -0.02255,7.75842 -0.125,9.71875 -0.104582,2.00137 -0.260513,5.97432 -0.3125,8.84375 -0.122373,6.75025 -0.223547,8.43235 -1.40625,15.8125 -0.08768,0.54714 -0.285473,1.86933 -0.46875,3.15625 -0.183277,1.28692 -0.371085,2.58655 -0.4375,2.875 -0.490972,2.13241 -0.904867,3.96792 -1.375,6.1875 -0.48226,2.277 -0.965046,4.12018 -1.40625,5.5 -0.104664,0.32732 -0.536684,1.82922 -0.96875,3.375 -0.216033,0.77289 -0.4302,1.5503 -0.59375,2.15625 -0.08177,0.30298 -0.13574,0.54751 -0.1875,0.75 -0.05176,0.20249 -0.07396,0.30869 -0.09375,0.4375 -0.05191,0.33776 0.101026,0.6371 0.28125,0.84375 0.180224,0.20665 0.399986,0.37096 0.65625,0.5 0.512528,0.25807 1.164338,0.42742 1.84375,0.40625 0.724625,-0.0226 3.436262,-0.24246 6.53125,-0.4375 3.09499,-0.19504 6.52374,-0.36416 8.46875,-0.375 0.99792,-0.006 1.9162,-0.0289 2.59375,-0.0625 0.33878,-0.0168 0.6212,-0.0303 0.84375,-0.0625 0.11128,-0.0161 0.20604,-0.0279 0.3125,-0.0625 0.0532,-0.0173 0.10969,-0.0439 0.1875,-0.0937 0.0778,-0.0498 0.19695,-0.15945 0.25,-0.375 0.0472,-0.19168 0.0178,-0.25287 0,-0.34375 -0.0178,-0.0909 -0.0314,-0.18347 -0.0625,-0.28125 -0.0623,-0.19556 -0.16964,-0.4371 -0.28125,-0.71875 -0.22322,-0.56329 -0.51579,-1.30112 -0.875,-2.1875 -0.71842,-1.77275 -1.62525,-4.1229 -2.28125,-6.5625 -0.11307,-0.4205 -0.41157,-1.76892 -0.6875,-3.0625 -0.13797,-0.64679 -0.27644,-1.2807 -0.375,-1.78125 -0.0986,-0.50055 -0.15542,-0.926 -0.15625,-0.9375 -0.0263,-0.36342 -0.15973,-1.10988 -0.3125,-2.09375 -0.15277,-0.98387 -0.3321,-2.17823 -0.53125,-3.40625 -0.3983,-2.45604 -0.83071,-5.02016 -0.90625,-5.78125 -0.12158,-1.22501 -0.30592,-2.37121 -0.21875,-9.5 0.0931,-7.61231 0.24945,-10.91931 0.75,-14.4375 0.0506,-0.3559 0.4007,-2.48066 0.71875,-4.5625 0.15903,-1.04092 0.31806,-2.06725 0.4375,-2.875 0.11944,-0.80775 0.20191,-1.3135 0.21875,-1.5625 0.0174,-0.25758 0.12387,-0.88309 0.3125,-1.625 0.18863,-0.74191 0.42782,-1.62162 0.6875,-2.5 0.51937,-1.75677 1.10428,-3.51458 1.3125,-4.15625 0.74463,-2.29459 2.21753,-5.59765 3.5,-8.34375 0.64124,-1.37305 1.22215,-2.60714 1.65625,-3.5 0.21705,-0.44643 0.4077,-0.80773 0.53125,-1.0625 0.0618,-0.12738 0.0905,-0.23914 0.125,-0.3125 0.0173,-0.0367 0.0505,-0.0664 0.0625,-0.0937 0.006,-0.0137 -0.007,-0.0119 0,-0.0312 0.004,-0.01 0.0247,-0.0414 0.0312,-0.0625 0.003,-0.0105 -0.005,-0.009 0,-0.0312 -0.002,0.006 0.027,-0.0388 0.0312,-0.0937 0.0312,-0.0737 0.0868,-0.1703 0.15625,-0.3125 0.13896,-0.2844 0.34,-0.67859 0.59375,-1.15625 0.50749,-0.95531 1.20844,-2.23783 1.96875,-3.59375 1.52061,-2.71184 3.29703,-5.78183 4.25,-7.28125 0.46011,-0.72396 1.06365,-1.7575 1.375,-2.34375 0.11365,-0.214 0.59359,-0.98533 1.21875,-1.9375 0.62516,-0.95217 1.41076,-2.12378 2.1875,-3.28125 0.77674,-1.15747 1.52338,-2.2936 2.125,-3.1875 0.60162,-0.8939 1.0274,-1.51017 1.15625,-1.71875 0.6344,-1.02695 3.43358,-4.87712 4.53125,-6.21875 0.82298,-1.00589 2.16233,-2.75275 3.3125,-4.28125 0.57508,-0.76425 1.0824,-1.48395 1.46875,-2 0.19318,-0.25802 0.3576,-0.4777 0.46875,-0.625 0.0556,-0.0737 0.0956,-0.11799 0.125,-0.15625 0.096,-0.0847 0.10834,-0.12664 0.1875,-0.21875 0.0792,-0.0921 0.19526,-0.20127 0.3125,-0.34375 0.23448,-0.28497 0.53343,-0.66596 0.875,-1.09375 0.68315,-0.85558 1.50799,-1.90211 2.1875,-2.78125 0.67931,-0.87887 1.56833,-1.91676 1.90625,-2.28125 1.05536,-1.13833 1.80015,-2.00561 2.28125,-2.625 0.24055,-0.30969 0.41545,-0.56286 0.53125,-0.78125 0.0579,-0.1092 0.10098,-0.21123 0.125,-0.375 0.012,-0.0819 0.0194,-0.1754 -0.0312,-0.3125 -0.0506,-0.1371 -0.17765,-0.28366 -0.3125,-0.34375 -0.3117,-0.13886 -0.45785,-0.0507 -0.59375,0 z" />
    </g>
  </g>
  <g
     id="layer1"
     style="fill:#800000"
     transform="translate(-36.9907,-66.217471)">
    <path
       d="m 262.5,93.75 0,200 -200,0 0,100 200,0 0,450 100,0 0,-450 200,0 0,-100 -200,0 0,-200 -100,0 z"
       id="rect1061"
       style="fill:#800000;fill-opacity:1;stroke:#000000;stroke-width:5;stroke-miterlimit:4;stroke-opacity:1" />
    <rect
       height="0"
       id="rect2304"
       style="fill:#800000;fill-opacity:1;stroke:#000000;stroke-width:5;stroke-miterlimit:4;stroke-opacity:1"
       width="8.30266"
       x="-583.2619"
       y="711.95312" />
  </g>
</svg>
