<?xml version="1.0" encoding="UTF-8" standalone="no"?>
<!-- Created with Inkscape (http://www.inkscape.org/) -->
<svg
   xmlns:dc="http://purl.org/dc/elements/1.1/"
   xmlns:cc="http://web.resource.org/cc/"
   xmlns:rdf="http://www.w3.org/1999/02/22-rdf-syntax-ns#"
   xmlns:svg="http://www.w3.org/2000/svg"
   xmlns="http://www.w3.org/2000/svg"
   xmlns:sodipodi="http://sodipodi.sourceforge.net/DTD/sodipodi-0.dtd"
   xmlns:inkscape="http://www.inkscape.org/namespaces/inkscape"
   width="88.550148"
   height="87.664459"
   id="svg3322"
   sodipodi:version="0.32"
   inkscape:version="0.45.1"
   version="1.0"
   sodipodi:docbase="/home/heino/cuon"
   sodipodi:docname="cuon_button_alternate1.svg"
   inkscape:output_extension="org.inkscape.output.svg.inkscape">
  <defs
     id="defs3" />
  <sodipodi:namedview
     inkscape:document-units="mm"
     id="base"
     pagecolor="#ffffff"
     bordercolor="#666666"
     borderopacity="1.0"
     inkscape:pageopacity="0.0"
     inkscape:pageshadow="2"
     inkscape:zoom="3.8911765"
     inkscape:cx="67.142857"
     inkscape:cy="42.857143"
     inkscape:current-layer="g4907"
     inkscape:window-width="969"
     inkscape:window-height="618"
     inkscape:window-x="352"
     inkscape:window-y="184" />
  <metadata
     id="metadata4">
    <rdf:RDF>
      <cc:Work
         rdf:about="">
        <dc:format>image/svg+xml</dc:format>
        <dc:type
           rdf:resource="http://purl.org/dc/dcmitype/StillImage" />
      </cc:Work>
    </rdf:RDF>
  </metadata>
  <g
     inkscape:label="Layer 1"
     inkscape:groupmode="layer"
     id="layer1"
     transform="translate(-392.86778,-448.52996)">
    <g
       id="g4907"
       transform="matrix(1.4613738,0,0,1.4613738,388.27163,376.82078)">
      <g
         transform="matrix(0.1272315,0,0,0.1272315,2.3040805,47.11564)"
         id="g4416">
        <path
           d="M 230.222,154.272 C 230.222,154.272 234.177,98.8923 242.88,74.367 C 251.582,49.8417 261.076,35.6011 299.051,19.7784 C 342.564,17.4049 374.209,9.49352 397.152,42.7214 C 413.766,82.2783 412.975,101.266 402.69,135.285 C 391.614,161.392 387.658,164.557 362.342,185.126 C 333.861,195.411 310.127,201.74 310.127,201.74 L 230.222,154.272 z "
           id="path4418"
           sodipodi:nodetypes="cccccccc"
           style="fill:#000bff;fill-opacity:1;fill-rule:evenodd;stroke:#000000;stroke-width:3.75;stroke-linecap:butt;stroke-linejoin:miter;stroke-dasharray:none;stroke-opacity:1" />
        <path
           d="M 310.918,201.74 C 310.918,201.74 291.139,293.513 291.139,294.304 C 291.139,295.095 304.588,310.126 334.652,333.069 C 367.089,355.222 371.045,365.507 421.677,361.551 C 452.532,343.354 455.696,342.563 474.684,315.664 C 478.639,284.019 485.76,261.867 476.266,234.177 C 454.905,214.398 458.861,208.07 404.272,198.576 C 349.684,189.082 310.918,203.323 310.918,201.74 z "
           id="path4420"
           sodipodi:nodetypes="cccccccc"
           style="fill:#000bff;fill-opacity:1;fill-rule:evenodd;stroke:#000000;stroke-width:3.75;stroke-linecap:butt;stroke-linejoin:miter;stroke-dasharray:none;stroke-opacity:1" />
        <path
           d="M 289.557,295.095 L 200.159,305.379 C 200.159,305.379 193.038,352.057 188.291,381.329 C 187.5,409.81 185.917,440.664 195.411,457.278 C 206.487,470.728 234.968,482.595 254.747,484.968 C 272.152,483.387 295.095,481.012 320.412,465.981 C 334.652,447.785 341.773,441.456 345.728,405.063 C 340.981,368.671 288.766,295.886 289.557,295.095 z "
           id="path4422"
           sodipodi:nodetypes="cccccccc"
           style="fill:#000bff;fill-opacity:1;fill-rule:evenodd;stroke:#000000;stroke-width:3.75;stroke-linecap:butt;stroke-linejoin:miter;stroke-dasharray:none;stroke-opacity:1" />
        <path
           d="M 229.431,153.481 C 228.64,153.481 159.019,222.31 159.019,222.31 C 159.019,222.31 121.836,210.443 98.1015,192.246 C 74.3671,174.05 56.962,153.481 50.6329,118.671 C 49.8417,91.772 51.424,77.5315 60.9177,56.9619 C 81.4873,39.5568 94.9363,31.6454 117.88,29.272 C 141.614,26.1075 155.064,29.272 172.469,44.3036 C 189.874,59.3353 201.741,79.1139 204.905,89.3987 C 208.07,99.6835 229.431,155.854 229.431,153.481 z "
           id="path4424"
           sodipodi:nodetypes="ccccccccc"
           style="fill:#000bff;fill-opacity:1;fill-rule:evenodd;stroke:#000000;stroke-width:3.75;stroke-linecap:butt;stroke-linejoin:miter;stroke-dasharray:none;stroke-opacity:1" />
        <path
           d="M 199.367,306.171 L 158.228,223.892 C 158.228,223.892 88.6076,210.443 66.4557,220.728 C 44.3038,231.013 30.8545,253.956 18.9874,276.108 C 11.8671,295.095 3.16456,303.798 12.6582,338.607 C 24.5253,374.208 26.1076,378.164 61.7089,388.449 C 98.1013,389.24 122.627,386.867 147.152,371.044 C 171.678,355.221 199.367,306.962 199.367,306.171 z "
           id="path4426"
           sodipodi:nodetypes="cccccccc"
           style="fill:#000bff;fill-opacity:1;fill-rule:evenodd;stroke:#000000;stroke-width:3.75;stroke-linecap:butt;stroke-linejoin:miter;stroke-dasharray:none;stroke-opacity:1" />
        <path
           d="M 349.68366 238.5284 A 82.67408 78.718369 0 1 1  184.3355,238.5284 A 82.67408 78.718369 0 1 1  349.68366 238.5284 z"
           id="path4428"
           sodipodi:cx="267.00958"
           sodipodi:cy="238.5284"
           sodipodi:rx="82.67408"
           sodipodi:ry="78.718369"
           sodipodi:type="arc"
           style="fill:none;fill-opacity:1;fill-rule:evenodd;stroke:#000000;stroke-width:3.67682004;stroke-linecap:butt;stroke-linejoin:miter;stroke-dasharray:none;stroke-opacity:1"
           transform="matrix(1,0,0,1.040201,-28.48103,-13.54477)" />
        <path
           d="M 349.68366 238.5284 A 82.67408 78.718369 0 1 1  184.3355,238.5284 A 82.67408 78.718369 0 1 1  349.68366 238.5284 z"
           id="path4430"
           sodipodi:cx="267.00958"
           sodipodi:cy="238.5284"
           sodipodi:rx="82.67408"
           sodipodi:ry="78.718369"
           sodipodi:type="arc"
           style="fill:#f8ff00;fill-opacity:1;fill-rule:evenodd;stroke:none;stroke-width:3.67682004;stroke-linecap:butt;stroke-linejoin:miter;stroke-dasharray:none;stroke-opacity:1"
           transform="matrix(0.971292,0,0,1.010051,-20.81572,-6.353035)" />
        <path
           d="M 238.336,131.362 C 238.336,91.7775 251.531,48.0685 275.447,35.6982 C 291.941,23.3278 352.969,16.7302 370.287,33.2241 C 384.306,72.8093 315.858,147.857 238.336,131.362 z "
           id="path4432"
           sodipodi:nodetypes="cccc"
           style="fill:#ffffff;fill-opacity:0.5;fill-rule:evenodd;stroke:none;stroke-width:1pt;stroke-linecap:butt;stroke-linejoin:miter;stroke-opacity:1" />
        <path
           d="M 327.403,203.936 C 348.02,194.039 438.737,205.584 457.705,220.429 C 482.444,241.046 475.848,265.788 471.724,294.652 C 459.353,240.222 299.364,293.827 327.403,203.936 z "
           id="path4434"
           sodipodi:nodetypes="cccc"
           style="fill:#ffffff;fill-opacity:0.5;fill-rule:evenodd;stroke:none;stroke-width:1pt;stroke-linecap:butt;stroke-linejoin:miter;stroke-opacity:1" />
        <path
           d="M 202.049,318.568 C 197.926,332.588 182.257,438.973 197.101,451.343 C 208.648,469.486 257.304,482.681 279.571,478.558 C 282.044,467.837 295.24,325.99 202.049,318.568 z "
           id="path4436"
           sodipodi:nodetypes="cccc"
           style="fill:#ffffff;fill-opacity:0.49803904;fill-rule:evenodd;stroke:none;stroke-width:1pt;stroke-linecap:butt;stroke-linejoin:miter;stroke-opacity:1" />
        <path
           d="M 143.496,212.183 C 122.879,203.111 66.8001,170.123 56.9038,127.239 C 49.4815,104.148 59.3779,60.439 70.9236,57.1402 C 89.8914,48.8932 174.01,78.5822 143.496,212.183 z "
           id="path4438"
           sodipodi:nodetypes="cccc"
           style="fill:#ffffff;fill-opacity:0.49803904;fill-rule:evenodd;stroke:none;stroke-width:1pt;stroke-linecap:butt;stroke-linejoin:miter;stroke-opacity:1" />
        <path
           d="M 18.1433,340.01 C 10.721,315.269 4.94818,293.827 41.2346,247.644 C 61.8519,203.111 138.548,227.027 146.795,228.676 C 172.361,280.632 51.9556,249.294 18.1433,340.01 z "
           id="path4440"
           sodipodi:nodetypes="cccc"
           style="fill:#ffffff;fill-opacity:0.49803904;fill-rule:evenodd;stroke:none;stroke-width:1pt;stroke-linecap:butt;stroke-linejoin:miter;stroke-opacity:1" />
      </g>
    </g>
  </g>
</svg>
